<svg width="65" height="44" viewBox="0 0 65 44" fill="none" xmlns="http://www.w3.org/2000/svg">
<path d="M6.1 4.12L0.94 2.8C0.94 1.6 1.24 0.999997 1.84 0.999997C2.56 0.999997 4.8 1.08 8.56 1.24L14.74 0.999997C15.34 0.999997 15.64 1.6 15.64 2.8L10.48 4.12L10.78 22L10.48 39.7H24.58L26.14 34.06C26.3 33.5 27.14 33.22 28.66 33.22L28.18 42.28C28.14 42.76 27.56 43 26.44 43L8.56 42.52L1.84 43C1.24 43 0.94 42.4 0.94 41.2L6.1 39.88L5.8 22L6.1 4.12ZM64.8091 31.36L64.3291 39.94C60.9691 42.46 56.4691 43.72 50.8291 43.72C45.1891 43.72 40.5891 41.84 37.0291 38.08C33.4691 34.32 31.6891 28.98 31.6891 22.06C31.6891 15.1 33.6091 9.74 37.4491 5.98C41.2891 2.18 46.1491 0.279999 52.0291 0.279999C56.7091 0.279999 60.8291 1.48 64.3891 3.88L62.8291 12.82C61.0291 12.82 60.1291 12.54 60.1291 11.98V5.32C57.6091 4.32 54.8491 3.82 51.8491 3.82C48.8491 3.82 45.9091 4.3 43.0291 5.26C41.1491 6.66 39.6691 8.84 38.5891 11.8C37.5091 14.76 36.9691 18.12 36.9691 21.88C36.9691 27.92 38.3291 32.54 41.0491 35.74C43.7691 38.94 47.3091 40.54 51.6691 40.54C55.2691 40.54 58.2891 39.8 60.7291 38.32L62.1091 32.2C62.2691 31.64 63.1691 31.36 64.8091 31.36Z" fill="#565656"/>
</svg>
